<?xml version="1.0" encoding="iso-8859-1"?>
<!-- Generator: Adobe Illustrator 19.0.0, SVG Export Plug-In . SVG Version: 6.00 Build 0)  -->
<svg version="1.1" id="Capa_1" xmlns="http://www.w3.org/2000/svg" xmlns:xlink="http://www.w3.org/1999/xlink" x="0px" y="0px"
	 viewBox="0 0 512 512" style="enable-background:new 0 0 512 512;" xml:space="preserve">
<path style="fill:#C4F0FF;" d="M502,236v40c0,11.04-8.95,20-20,20h-50.64c-4.57,20.03-12.5,38.76-23.15,55.64l31.64,31.64
	c7.81,7.81,7.81,20.47,0,28.28l-28.29,28.29c-7.81,7.81-20.47,7.81-28.28,0l-31.64-31.64c-16.88,10.65-35.61,18.58-55.64,23.15V482
	c0,11.04-8.95,20-20,20h-40c-11.05,0-20-8.96-20-20v-50.64c-20.03-4.57-38.76-12.5-55.64-23.15l-31.64,31.64
	c-7.81,7.81-20.47,7.81-28.28,0l-28.29-28.29c-7.81-7.81-7.81-20.47,0-28.28l31.64-31.64C93.14,334.76,85.21,316.03,80.64,296H30
	c-11.05,0-20-8.96-20-20v-40c0-11.05,8.95-20,20-20h50.64c4.57-20.03,12.5-38.76,23.15-55.64l-31.64-31.64
	c-7.81-7.81-7.81-20.47,0-28.28l28.29-28.29c7.81-7.81,20.47-7.81,28.28,0l31.64,31.64c16.88-10.65,35.61-18.58,55.64-23.15V30
	c0-11.05,8.95-20,20-20h40c11.05,0,20,8.95,20,20v50.64c20.03,4.57,38.76,12.5,55.64,23.15l31.64-31.64
	c7.81-7.81,20.47-7.81,28.28,0l28.29,28.29c7.81,7.81,7.81,20.47,0,28.28l-31.64,31.64c10.65,16.88,18.58,35.61,23.15,55.64H482
	C493.05,216,502,224.95,502,236z M356,256c0-55.14-44.86-100-100-100s-100,44.86-100,100s44.86,100,100,100S356,311.14,356,256z"/>
<path d="M348.93,348.93c-3.91,3.9-3.91,10.24,0,14.14c3.9,3.91,10.24,3.91,14.14,0c3.91-3.9,3.91-10.24,0-14.14
	C359.17,345.02,352.83,345.02,348.93,348.93z"/>
<path d="M163.07,163.07c3.91-3.9,3.91-10.24,0-14.14c-3.9-3.91-10.24-3.91-14.14,0c-3.91,3.9-3.91,10.24,0,14.14
	C152.83,166.98,159.17,166.98,163.07,163.07z"/>
<path d="M482,206h-42.839c-4.211-15.396-10.36-30.173-18.352-44.097l26.111-26.111c5.666-5.666,8.787-13.199,8.787-21.211
	s-3.121-15.545-8.787-21.211l-28.29-28.29c-5.666-5.666-13.198-8.787-21.211-8.787s-15.545,3.121-21.211,8.786l-26.112,26.112
	c-13.924-7.992-28.7-14.142-44.096-18.351V30c0-16.542-13.458-30-30-30h-40c-16.542,0-30,13.458-30,30v42.84
	c-15.395,4.209-30.172,10.359-44.097,18.351l-26.111-26.112c-11.696-11.695-30.727-11.695-42.422,0l-28.291,28.29
	c-11.696,11.696-11.696,30.726,0,42.422l26.112,26.111C83.199,175.828,77.049,190.605,72.84,206H30c-16.542,0-30,13.458-30,30v40
	c0,16.542,13.458,30,30,30h42.84c4.209,15.395,10.359,30.172,18.351,44.097l-26.112,26.111c-11.696,11.696-11.696,30.727,0,42.422
	l28.291,28.291c11.695,11.695,30.726,11.696,42.422,0l26.111-26.112c13.925,7.992,28.702,14.142,44.097,18.351V482
	c0,16.542,13.458,30,30,30h40c16.542,0,30-13.458,30-30v-42.84c15.396-4.209,30.172-10.359,44.097-18.351l26.112,26.112
	c5.666,5.666,13.198,8.787,21.211,8.787s15.545-3.121,21.211-8.786l28.29-28.29c5.666-5.666,8.787-13.199,8.787-21.211
	s-3.121-15.545-8.787-21.211l-26.111-26.111c7.991-13.924,14.141-28.701,18.352-44.097H482c16.542,0,30-13.458,30-30v-40
	C512,219.458,498.542,206,482,206z M492,276c0,5.514-4.486,10-10,10h-50.64c-4.666,0-8.712,3.227-9.749,7.775
	c-4.242,18.59-11.597,36.264-21.858,52.529c-2.493,3.952-1.918,9.103,1.386,12.407l31.64,31.64c1.889,1.889,2.93,4.399,2.93,7.069
	s-1.041,5.18-2.93,7.069l-28.29,28.291c-1.889,1.888-4.398,2.928-7.068,2.928s-5.18-1.04-7.068-2.929l-31.641-31.64
	c-3.305-3.304-8.456-3.878-12.407-1.386c-16.267,10.263-33.939,17.617-52.528,21.858c-4.549,1.038-7.775,5.083-7.775,9.75V482
	c0,5.514-4.486,10-10,10h-40c-5.514,0-10-4.486-10-10v-50.64c0-4.666-3.227-8.711-7.776-9.75
	c-18.588-4.241-36.262-11.595-52.528-21.858c-1.644-1.037-3.494-1.542-5.333-1.542c-2.583,0-5.145,0.999-7.075,2.929l-31.639,31.64
	c-3.898,3.898-10.241,3.898-14.138,0l-28.29-28.29c-3.898-3.897-3.898-10.24,0-14.138l31.641-31.64
	c3.304-3.304,3.879-8.456,1.386-12.407c-10.263-16.267-17.617-33.94-21.858-52.528c-1.038-4.549-5.083-7.776-9.75-7.776H30
	c-5.514,0-10-4.486-10-10v-40c0-5.514,4.486-10,10-10h50.64c4.666,0,8.711-3.227,9.75-7.776
	c4.241-18.588,11.595-36.262,21.858-52.528c2.493-3.952,1.917-9.103-1.386-12.407l-31.64-31.639c-3.898-3.898-3.898-10.241,0-14.138
	l28.29-28.29c3.897-3.898,10.24-3.897,14.138,0l31.64,31.641c3.304,3.304,8.456,3.88,12.407,1.386
	c16.267-10.263,33.94-17.617,52.528-21.858c4.549-1.038,7.776-5.083,7.776-9.75V30c0-5.514,4.486-10,10-10h40
	c5.514,0,10,4.486,10,10v50.64c0,4.666,3.227,8.712,7.775,9.75c18.589,4.241,36.262,11.595,52.528,21.858
	c3.95,2.492,9.101,1.918,12.407-1.386l31.641-31.641c1.889-1.888,4.398-2.928,7.068-2.928s5.18,1.04,7.068,2.929l28.29,28.29
	c1.889,1.889,2.93,4.399,2.93,7.069s-1.041,5.18-2.93,7.069l-31.64,31.639c-3.304,3.304-3.879,8.456-1.386,12.407
	c10.262,16.265,17.616,33.938,21.858,52.529c1.037,4.549,5.083,7.775,9.749,7.775H482c5.514,0,10,4.486,10,10V276z"/>
<path d="M288.929,228.929L246,271.858l-22.929-22.929c-3.905-3.905-10.237-3.905-14.143,0s-3.905,10.237,0,14.143l30,30
	C240.881,295.024,243.44,296,246,296s5.118-0.976,7.071-2.929l50-50c3.905-3.905,3.905-10.237,0-14.143
	C299.165,225.023,292.835,225.023,288.929,228.929z"/>
<path d="M256,146c-60.654,0-110,49.346-110,110s49.346,110,110,110s110-49.346,110-110S316.654,146,256,146z M256,346
	c-49.626,0-90-40.374-90-90s40.374-90,90-90s90,40.374,90,90S305.626,346,256,346z"/>
<path d="M256,106c-5.522,0-10,4.477-10,10s4.478,10,10,10c71.683,0,130,58.318,130,130c0,21.806-5.498,43.372-15.9,62.367
	c-2.653,4.844-0.877,10.921,3.967,13.574c1.524,0.835,3.171,1.231,4.795,1.231c3.535,0,6.962-1.879,8.779-5.199
	C399.651,306.042,406,281.154,406,256C406,173.29,338.71,106,256,106z"/>
<path d="M256,386c-71.682,0-130-58.318-130-130c0-21.806,5.499-43.372,15.901-62.367c2.653-4.844,0.876-10.921-3.968-13.574
	c-4.843-2.652-10.921-0.876-13.574,3.968C112.349,205.958,106,230.846,106,256c0,82.71,67.29,150,150,150c5.522,0,10-4.477,10-10
	S261.522,386,256,386z"/>
<g>
</g>
<g>
</g>
<g>
</g>
<g>
</g>
<g>
</g>
<g>
</g>
<g>
</g>
<g>
</g>
<g>
</g>
<g>
</g>
<g>
</g>
<g>
</g>
<g>
</g>
<g>
</g>
<g>
</g>
</svg>
